<?xml version="1.0" encoding="UTF-8"?><svg id="Layer_2" xmlns="http://www.w3.org/2000/svg" viewBox="0 0 978.34 284.69"><g id="Content"><g><path d="M903.93,106.62c-9.96,0-18.7,3.7-26.62,11.29v-9.34h-16.07V239.59l16.07-9v-34.54c7.13,7.02,15.11,10.3,24.85,10.3,22.16,0,36.48-20.16,36.48-51.37s-12.97-48.36-34.71-48.36Zm-2.83,85.43c-9.39,0-18.25-4.87-23.79-13.04v-45.53c6.84-8.34,14.66-12.58,23.25-12.58,14.31,0,22.19,12.16,22.19,34.25,0,24.48-7.29,36.9-21.65,36.9Z" style="fill:#fff; stroke:#1d1d1b; stroke-miterlimit:10; stroke-width:3px;"/><path d="M61.29,105.11c0,16.93-13.72,30.65-30.64,30.65S0,122.04,0,105.11s13.72-30.65,30.64-30.65,30.64,13.72,30.64,30.65" style="fill:#e30613;"/><path d="M61.29,179.58c0,16.93-13.72,30.64-30.64,30.64S0,196.51,0,179.58s13.72-30.65,30.64-30.65,30.64,13.72,30.64,30.65" style="fill:#e30613;"/><path d="M61.29,254.05c0,16.93-13.72,30.64-30.64,30.64S0,270.98,0,254.05s13.72-30.65,30.64-30.65,30.64,13.72,30.64,30.65" style="fill:#e30613;"/><path d="M61.29,30.64c0,16.92-13.72,30.65-30.64,30.65S0,47.57,0,30.64,13.72,0,30.64,0s30.64,13.72,30.64,30.64" style="fill:#e30613;"/><path d="M143.71,179.58c0,16.93-13.72,30.64-30.64,30.64s-30.64-13.71-30.64-30.64,13.72-30.65,30.64-30.65,30.64,13.72,30.64,30.65" style="fill:#e30613;"/><path d="M143.71,30.64c0,16.92-13.72,30.65-30.64,30.65s-30.64-13.72-30.64-30.65S96.14,0,113.06,0s30.64,13.72,30.64,30.64" style="fill:#e30613;"/><path d="M960.3,78.35c-7.9,0-13.84,6.48-13.84,14.38s5.94,14.38,14.06,14.38c7.9,.11,13.72-6.37,13.72-14.38s-5.82-14.38-13.83-14.38h-.11Z" style="fill:none;"/><path d="M957.55,102.07h-4.17v-17.9c1.65-.33,3.95-.66,6.92-.66,3.4,0,4.94,.54,6.25,1.42,.99,.77,1.76,2.2,1.76,3.84,0,2.09-1.54,3.62-3.73,4.28v.23c1.76,.55,2.75,1.97,3.3,4.39,.54,2.74,.87,3.84,1.32,4.39h-4.5c-.55-.66-.88-2.2-1.43-4.28-.32-1.98-1.43-2.86-3.73-2.86h-1.98v7.14Z" style="fill:#fff;"/><path d="M957.66,91.97h1.97c2.31,0,4.18-.77,4.18-2.64,0-1.64-1.21-2.74-3.84-2.74-1.1,0-1.87,.11-2.31,.22v5.16Z" style="fill:#191919;"/><polygon points="195.42 208.56 170.51 208.56 170.51 73.4 254.45 73.4 254.45 97.07 195.42 97.07 195.42 127.1 229.46 127.1 229.46 150.77 195.42 150.77 195.42 208.56" style="fill:#1d1d1b;"/><path d="M367.81,210.51c-13.01,0-25.55-4.53-36.25-13.09l-4.33-3.46,14.9-18.62,4.36,3.84c6.6,5.82,14.1,8.89,21.68,8.89,13.24,0,13.24-6.18,13.24-8.81,0-3.43-1.34-6.44-18.63-13.88-17.42-7.46-29.76-14.25-29.76-33.63,0-16.97,14.56-29.3,34.61-29.3,12.92,0,24.43,3.87,33.31,11.19l4.12,3.4-14.08,18.45-4.42-3.45c-6.85-5.35-11.85-7.16-19.81-7.16-2.32,0-9.88,.43-9.88,5.97,0,3.89,1.42,5.89,17.29,13.02,16.7,7.59,31.1,14.14,31.1,34.83,0,21.95-18.81,31.78-37.45,31.78Z" style="fill:#1d1d1b;"/><path d="M439.96,210.51c-15.44,0-23.27-8.96-23.27-26.64v-57.2h-11.52v-22.26h11.52v-26.42l24.39-13.66v40.07h23.04v22.26h-23.04v55.08c0,5.62,.29,5.62,3.85,5.62,4.7,0,7.58-.82,10.98-2.24l8.35-3.47-1.84,23.94-3.15,1.3c-6.13,2.53-11.9,3.61-19.31,3.61Z" style="fill:#1d1d1b;"/><path d="M526.27,210.51c-32.8,0-55.7-28.52-55.7-69.35s23.65-69.71,56.24-69.71c18.83,0,33.23,7.25,44.02,22.15l3.18,4.39-19.79,15-3.33-4.52c-7.45-10.1-13.38-13.34-24.43-13.34-18.23,0-30.97,18.78-30.97,45.68s13.1,46.04,31.15,46.04c10.72,0,18.58-4.24,26.28-14.16l3.59-4.64,17.86,15.55-3.05,4.12c-11.03,14.92-26.61,22.81-45.05,22.81Z" style="fill:#1d1d1b;"/><polygon points="606.26 208.56 581.88 208.56 581.88 78 606.26 64.34 606.26 208.56" style="fill:#1d1d1b;"/><path d="M844.31,208.56h-24.38v-59.96c0-21.73-6.85-23.53-14.48-23.53-4.16,0-15.2,0-15.2,23.53v59.96h-24.38v-59.96c0-21.71-7.48-23.53-14.49-23.53-4.15,0-15.19,0-15.19,23.53v59.96h-24.38V104.41h24.38v3.18c5.17-3.36,11.28-5.13,18.03-5.13,10.57,0,19.49,4.12,25.81,11.78,5.47-6.14,13.93-11.78,27.89-11.78s36.39,5.7,36.39,43.83v62.26Z" style="fill:#1d1d1b;"/><polygon points="191.27 204.4 174.67 204.4 174.67 77.56 250.29 77.56 250.29 92.91 191.27 92.91 191.27 131.26 225.3 131.26 225.3 146.61 191.27 146.61 191.27 204.4" style="fill:#fff;"/><path d="M367.81,206.35c-12.05,0-23.69-4.21-33.66-12.18l-1.08-.87,9.58-11.97,1.09,.96c7.37,6.5,15.82,9.93,24.43,9.93,11.55,0,17.4-4.36,17.4-12.97,0-6.67-4.74-10.64-21.14-17.7-19.21-8.23-27.25-14.19-27.25-29.8,0-14.8,12.52-25.14,30.45-25.14,11.94,0,22.54,3.54,30.66,10.24l1.03,.85-9.1,11.92-1.11-.86c-6.52-5.09-12.27-8.04-22.37-8.04-8.66,0-14.03,3.88-14.03,10.13,0,6.95,4.21,9.83,19.74,16.82,16.63,7.56,28.64,13.02,28.64,31.04,0,19.08-16.72,27.62-33.29,27.62Z" style="fill:#fff;"/><path d="M439.96,206.35c-13.04,0-19.11-7.14-19.11-22.48v-61.36h-11.52v-13.94h11.52v-28.14l16.07-9v37.14h23.04v13.94h-23.04v59.23c0,7.59,1.8,9.78,8.01,9.78,5.37,0,8.8-.98,12.58-2.55l2.09-.87-1.12,14.63-.79,.33c-5.66,2.34-10.8,3.29-17.72,3.29Z" style="fill:#fff;"/><path d="M526.27,206.35c-30.35,0-51.55-26.81-51.55-65.19s21.9-65.55,52.08-65.55c17.41,0,30.7,6.68,40.65,20.43l.79,1.1-13.19,10-.83-1.13c-8.19-11.1-15.45-15.04-27.77-15.04-20.68,0-35.13,20.49-35.13,49.84s14.85,50.2,35.31,50.2c11.99,0,21.1-4.86,29.56-15.77l.9-1.16,11.64,10.13-.76,1.03c-10.22,13.82-24.64,21.12-41.71,21.12Z" style="fill:#fff;"/><polygon points="602.1 204.4 586.04 204.4 586.04 80.44 602.1 71.44 602.1 204.4" style="fill:#fff;"/><path d="M840.15,204.4h-16.07v-55.8c0-19.67-5.4-27.69-18.64-27.69s-19.35,9.32-19.35,27.69v55.8h-16.06v-55.8c0-24.54-9.96-27.69-18.65-27.69-12.84,0-19.35,9.32-19.35,27.69v55.8h-16.07V108.57h16.07v8.32c5.43-6.73,13.02-10.27,22.19-10.27,13.84,0,21.49,7.52,25.63,14.62,4.87-7.19,12.61-14.62,28.07-14.62s32.23,6.88,32.23,39.67v58.1Z" style="fill:#fff;"/><path d="M903.93,106.62c-9.96,0-18.7,3.7-26.62,11.29v-9.34h-16.07V239.59l16.07-9v-34.54c7.13,7.02,15.11,10.3,24.85,10.3,22.16,0,36.48-20.16,36.48-51.37s-12.97-48.36-34.71-48.36Zm-2.83,85.43c-9.39,0-18.25-4.87-23.79-13.04v-45.53c6.84-8.34,14.66-12.58,23.25-12.58,14.31,0,22.19,12.16,22.19,34.25,0,24.48-7.29,36.9-21.65,36.9Z" style="fill:#fff;"/><path d="M977.72,92.79c0,9.38-7.61,16.99-16.99,16.99s-16.98-7.6-16.98-16.99,7.61-16.98,16.98-16.98,16.99,7.6,16.99,16.98Z" style="fill:none; stroke:#fff; stroke-miterlimit:10; stroke-width:1.25px;"/><g><path d="M285.13,107.57c-11.52,0-22.83,2.7-31.86,7.61l-1.14,.62,6.14,13.38,1.32-.77c8.09-4.71,15.92-6.9,24.65-6.9,12.84,0,18.82,6.1,18.82,19.18v8.73c-6.12-2.84-13.93-4.45-21.84-4.45-17.07,0-37.01,8.17-37.01,31.17,0,28.92,23.85,31.17,31.16,31.17,10.61,0,19.7-3.7,27.68-11.3v9.34h16.07v-66.26c0-20.91-11.44-31.52-34-31.52Zm17.93,73.07c-3.77,5.05-11.9,13.07-25.38,13.07-11.5,0-17.58-6.39-17.58-18.46,0-10.72,7.44-16.88,20.41-16.88,9.61,0,16.22,1.38,22.54,4.76v17.52Z" style="fill:#fff; stroke:#1d1d1b; stroke-miterlimit:10; stroke-width:3px;"/><path d="M285.13,107.57c-11.52,0-22.83,2.7-31.86,7.61l-1.14,.62,6.14,13.38,1.32-.77c8.09-4.71,15.92-6.9,24.65-6.9,12.84,0,18.82,6.1,18.82,19.18v8.73c-6.12-2.84-13.93-4.45-21.84-4.45-17.07,0-37.01,8.17-37.01,31.17,0,28.92,23.85,31.17,31.16,31.17,10.61,0,19.7-3.7,27.68-11.3v9.34h16.07v-66.26c0-20.91-11.44-31.52-34-31.52Zm17.93,73.07c-3.77,5.05-11.9,13.07-25.38,13.07-11.5,0-17.58-6.39-17.58-18.46,0-10.72,7.44-16.88,20.41-16.88,9.61,0,16.22,1.38,22.54,4.76v17.52Z" style="fill:#fff;"/></g><g><path d="M660.31,107.03c-11.52,0-22.83,2.7-31.86,7.61l-1.14,.62,6.14,13.38,1.32-.77c8.09-4.71,15.92-6.9,24.65-6.9,12.84,0,18.82,6.1,18.82,19.18v8.73c-6.12-2.84-13.93-4.45-21.83-4.45-17.08,0-37.01,8.17-37.01,31.17,0,28.92,23.85,31.17,31.17,31.17,10.61,0,19.7-3.7,27.68-11.3v9.34h16.07v-66.26c0-20.91-11.44-31.52-34-31.52Zm17.93,73.07c-3.77,5.05-11.89,13.07-25.38,13.07-11.5,0-17.57-6.39-17.57-18.46,0-10.72,7.44-16.88,20.41-16.88,9.61,0,16.22,1.38,22.54,4.76v17.52Z" style="fill:#fff; stroke:#1d1d1b; stroke-miterlimit:10; stroke-width:3px;"/><path d="M660.31,107.03c-11.52,0-22.83,2.7-31.86,7.61l-1.14,.62,6.14,13.38,1.32-.77c8.09-4.71,15.92-6.9,24.65-6.9,12.84,0,18.82,6.1,18.82,19.18v8.73c-6.12-2.84-13.93-4.45-21.83-4.45-17.08,0-37.01,8.17-37.01,31.17,0,28.92,23.85,31.17,31.17,31.17,10.61,0,19.7-3.7,27.68-11.3v9.34h16.07v-66.26c0-20.91-11.44-31.52-34-31.52Zm17.93,73.07c-3.77,5.05-11.89,13.07-25.38,13.07-11.5,0-17.57-6.39-17.57-18.46,0-10.72,7.44-16.88,20.41-16.88,9.61,0,16.22,1.38,22.54,4.76v17.52Z" style="fill:#fff;"/></g></g></g></svg>